<svg width="22" height="22" viewBox="0 0 22 22" fill="none" xmlns="http://www.w3.org/2000/svg">
<path d="M8.56363 17.2167L6.79354 16.7419L7.51496 14.0478C6.4351 13.6496 5.43148 13.0692 4.54771 12.3318L2.57413 14.3063L1.27704 13.0092L3.25154 11.0357C2.13694 9.70078 1.38804 8.09936 1.07812 6.38817L2.88213 6.05908C3.57788 9.91092 6.94754 12.8332 11.0001 12.8332C15.0518 12.8332 18.4224 9.91092 19.1181 6.05908L20.9221 6.38725C20.6126 8.09868 19.864 9.70042 18.7496 11.0357L20.7232 13.0092L19.4261 14.3063L17.4525 12.3318C16.5688 13.0692 15.5652 13.6496 14.4853 14.0478L15.2067 16.7428L13.4366 17.2167L12.7143 14.5217C11.5798 14.7162 10.4205 14.7162 9.28596 14.5217L8.56363 17.2167Z" fill="black"/>
</svg>
